<?xml version="1.0" encoding="UTF-8"?>
<svg width="954px" height="112px" viewBox="0 0 954 112" version="1.1" xmlns="http://www.w3.org/2000/svg" xmlns:xlink="http://www.w3.org/1999/xlink">
    <title>Mobile Copy 2</title>
    <g id="Mobile-Copy-2" stroke="none" stroke-width="1" fill="none" fill-rule="evenodd">
        <rect id="Rectangle" fill="#FFFFFF" x="115" y="0" width="838" height="112"></rect>
        <g id="Group-2" transform="translate(0.000000, 0.000000)" fill="#002540" fill-rule="nonzero">
            <g id="Bildschirmfoto-2021-01-15-um-18.54.57-Copy" transform="translate(114.000000, 0.000000)">
                <g id="Group" transform="translate(420.000000, 57.000000) scale(-1, 1) rotate(-180.000000) translate(-420.000000, -57.000000) ">
                    <path d="M0,57 L0,0 L420,0 L840,0 L840,57 L840,114 L420,114 L0,114 L0,57 Z M204.802676,101.365605 C211.123746,99.5866242 215.934783,97.0089172 221.518395,92.289172 C229.595318,85.5363057 235.424749,75.3343949 237.742475,63.8980892 C237.953177,62.8089172 238.198997,61.5382166 238.304348,61.1025478 L238.444816,60.2675159 L232.474916,60.2675159 L226.505017,60.2675159 L226.294314,61.2840764 C224.362876,70.5057325 220.605351,77.8757962 215.197324,82.922293 C209.262542,88.5133758 203.714047,90.9821656 196.304348,91.3815287 C188.016722,91.8171975 180.852843,89.0216561 174.461538,82.8133758 C170.107023,78.6019108 166.314381,71.7401274 164.488294,64.8057325 C163.996656,62.8089172 163.505017,60.9573248 163.434783,60.7394904 C163.329431,60.3764331 161.854515,60.2675159 157.5,60.2675159 L151.705686,60.2675159 L151.705686,61.5019108 C151.705686,62.1917197 152.091973,64.333758 152.583612,66.2942675 C157.183946,84.556051 171.020067,98.6063694 187.630435,101.873885 C191.493311,102.636306 201.326087,102.34586 204.802676,101.365605 Z M502.419732,101.801274 C513.481605,100.13121 523.20903,93.5598726 528.546823,84.1566879 C529.284281,82.8496815 529.916388,81.6515924 529.916388,81.5789809 C529.916388,81.3248408 521.242475,75.5159236 520.891304,75.5159236 C520.750836,75.5159236 520.048495,76.5324841 519.381271,77.766879 C517.730769,80.8165605 513.130435,85.5726115 510.075251,87.4242038 C505.123746,90.4375796 499.785953,91.7082803 493.324415,91.3815287 C486.757525,91.0910828 482.122074,89.3484076 476.749164,85.1369427 C470.392977,80.1630573 466.319398,73.4464968 464.14214,64.2611465 L463.018395,59.5414013 L457.153846,59.5414013 L451.289298,59.5414013 L451.464883,60.7394904 C453.010033,70.3242038 455.117057,76.0605096 459.647157,82.9949045 C466.284281,93.1605096 477.591973,100.421656 489.250836,101.982803 C492.938127,102.491083 498.556856,102.418471 502.419732,101.801274 Z M694.264214,101.873885 C702.516722,100.494268 709.750836,96.6458599 716.493311,90.0019108 C723.060201,83.6121019 727.660535,75.189172 729.943144,65.5681529 C731.207358,60.122293 731.734114,60.6305732 725.026756,60.6305732 L719.267559,60.6305732 L718.5301,63.789172 C715.369565,76.7503185 707.152174,86.5528662 696.265886,90.2923567 C693.632107,91.2 692.929766,91.2726115 687.767559,91.2726115 C681.446488,91.3089172 679.444816,90.9095541 675.125418,88.6949045 C665.608696,83.8299363 659.392977,75.043949 656.337793,62.1917197 L655.951505,60.6305732 L650.192308,60.6305732 C645.381271,60.6305732 644.397993,60.7031847 644.397993,61.1388535 C644.397993,62.3006369 645.521739,67.0929936 646.505017,70.1063694 C651.210702,84.7012739 663.010033,96.7184713 676.5301,100.784713 C678.250836,101.292994 680.603679,101.83758 681.797659,102.019108 C685.274247,102.454777 691.068562,102.418471 694.264214,101.873885 Z M61.770903,100.857325 C67.0033445,98.8968153 71.1120401,94.9394904 73.8511706,89.2757962 C76.1688963,84.4834395 76.7307692,82.0509554 76.6956522,76.7866242 C76.6956522,73.0471338 76.5551839,72.0305732 75.7123746,69.5254777 C73.7809365,63.643949 69.812709,58.4522293 65.493311,56.056051 L63.4565217,54.8942675 L65.2826087,54.2770701 C69.3913043,52.8611465 75.1856187,47.7783439 77.6086957,43.4579618 C80.277592,38.6656051 81.4364548,31.0050955 80.312709,25.5229299 C79.6103679,22.1828025 77.7491639,18.1528662 75.7123746,15.5025478 C72.6571906,11.5815287 67.1438127,8.05987261 61.5953177,6.46242038 C58.8913043,5.66369427 58.3294314,5.66369427 33.993311,5.51847134 L9.13043478,5.40955414 L9.13043478,10.6738854 L9.13043478,15.9745223 L31.5351171,15.9745223 C46.1789298,15.9745223 54.6772575,16.1197452 56.0468227,16.3738854 C64.6505017,18.0076433 70.5150502,27.5923567 68.3026756,36.4509554 C67.0033445,41.533758 63.59699,46.2898089 59.9448161,47.9961783 C58.1538462,48.8312102 57.8729097,48.8312102 45.5819398,48.9401274 L33.0100334,49.0490446 L33.0100334,54.0955414 L33.0100334,59.1420382 L43.6505017,59.2509554 L54.2558528,59.3598726 L56.5735786,60.5216561 C59.5234114,62.0101911 62.1923077,64.9146497 63.59699,68.0732484 C67.3545151,76.677707 63.7023411,87.3878981 56.0117057,90.3649682 C54.1153846,91.0910828 53.3779264,91.1273885 37.5752508,91.1273885 L21.0702341,91.1273885 L21.0702341,59.1783439 L21.0702341,27.2292994 L15.1003344,27.2292994 L9.13043478,27.2292994 L9.13043478,64.6242038 L9.13043478,102.055414 L34.1688963,101.946497 L59.1722408,101.83758 L61.770903,100.857325 Z M122.031773,53.7324841 L122.031773,5.62738854 L116.167224,5.51847134 L110.267559,5.44585987 L110.267559,53.7324841 L110.267559,102.019108 L116.167224,101.946497 L122.031773,101.83758 L122.031773,53.7324841 Z M279.461538,69.3802548 L291.822742,36.777707 L288.943144,29.988535 C287.362876,26.2490446 285.958194,23.344586 285.817726,23.4898089 C285.677258,23.6350318 280.795987,35.8700637 274.966555,50.6464968 C269.137124,65.4229299 262.254181,82.8859873 259.655518,89.4210191 C257.056856,95.956051 254.949833,101.474522 254.949833,101.692357 C254.949833,101.873885 257.443144,102.019108 261.025084,102.019108 L267.100334,102.019108 L279.461538,69.3802548 Z M340.986622,101.692357 C340.986622,101.510828 332.488294,79.8363057 322.058528,53.5146497 L303.165552,5.62738854 L298.073579,5.51847134 C293.122074,5.44585987 292.981605,5.44585987 292.630435,6.24458599 C292.349498,6.89808917 292.876254,8.42292994 295.545151,14.8490446 C297.301003,19.1694268 305.518395,40.5535032 313.80602,62.3732484 L328.801003,102.019108 L334.911371,102.019108 C338.247492,102.019108 340.986622,101.873885 340.986622,101.692357 Z M428.70903,96.5006369 L428.814381,91.1273885 L403.494983,91.1273885 L378.210702,91.1273885 L378.210702,81.6878981 L378.210702,72.2484076 L372.416388,72.2484076 L366.622074,72.2484076 L366.622074,87.133758 L366.622074,102.019108 L397.630435,101.946497 L428.603679,101.83758 L428.70903,96.5006369 Z M626.488294,96.3917197 L626.488294,91.1273885 L588.561873,91.1273885 L550.635452,91.1273885 L550.635452,96.3917197 L550.635452,101.656051 L588.561873,101.656051 L626.488294,101.656051 L626.488294,96.3917197 Z M808.394649,100.530573 C813.346154,98.7878981 817.595318,95.7745223 821.107023,91.5630573 C830.553512,80.1630573 831.29097,64.5878981 822.93311,52.4254777 C820.158863,48.3229299 815.347826,44.510828 811.48495,43.3490446 C810.361204,42.9859873 809.448161,42.5503185 809.448161,42.4050955 C809.448161,42.1509554 827.006689,13.2152866 831.150502,6.60764331 L831.64214,5.8089172 L825.145485,5.8089172 L818.648829,5.8089172 L806.498328,25.5229299 C799.826087,36.3420382 793.575251,46.4713376 792.591973,48.0324841 L790.83612,50.8280255 L796.735786,50.8280255 C802.951505,50.8280255 804.882943,51.1547771 807.692308,52.6433121 C812.046823,54.9305732 815.382943,60.0133758 816.647157,66.2579618 C817.349498,69.8522293 817.314381,72.6477707 816.471572,76.0242038 C814.961538,82.2324841 811.379599,87.0248408 806.428094,89.5299363 L803.688963,90.9458599 L788.132107,91.0547771 L772.575251,91.1636943 L772.575251,70.977707 L772.575251,50.8280255 L775.173913,50.8280255 L777.772575,50.8280255 L780.93311,45.6363057 L784.058528,40.4808917 L778.334448,40.3719745 L772.575251,40.2993631 L772.575251,23.0541401 L772.575251,5.8089172 L766.780936,5.8089172 L760.986622,5.8089172 L760.986622,53.7324841 L760.986622,101.692357 L783.391304,101.583439 L805.76087,101.474522 L808.394649,100.530573 Z M594.180602,42.2961783 L594.180602,5.8089172 L588.386288,5.8089172 L582.591973,5.8089172 L582.591973,42.2961783 L582.591973,78.7834395 L588.386288,78.7834395 L594.180602,78.7834395 L594.180602,42.2961783 Z M422.107023,54.8216561 L422.107023,49.7388535 L400.158863,49.7388535 L378.210702,49.7388535 L378.210702,39.2101911 L378.210702,28.6815287 L372.416388,28.6815287 L366.622074,28.6815287 L366.622074,44.2929936 L366.622074,59.9044586 L394.364548,59.9044586 L422.107023,59.9044586 L422.107023,54.8216561 Z M163.294314,48.1414013 C163.294314,47.0159236 164.628763,41.3159236 165.401338,39.1012739 C169.685619,27.011465 178.780936,18.4796178 189.632107,16.3375796 C192.58194,15.7566879 198.692308,15.8656051 201.607023,16.555414 C212.598662,19.0968153 221.553512,28.6452229 225.240803,41.7878981 C225.697324,43.4942675 226.188963,45.6363057 226.329431,46.5802548 L226.575251,48.2866242 L232.650502,48.2866242 L238.690635,48.2866242 L238.234114,45.5273885 C236.443144,34.8898089 232.229097,26.1038217 225.451505,18.7700637 C214.319398,6.71656051 198.938127,2.17834395 183.662207,6.35350318 C173.091973,9.25796178 163.153846,17.6082803 157.359532,28.4273885 C154.76087,33.2923567 152.267559,41.0617834 151.5301,46.5802548 L151.319398,48.2866242 L157.289298,48.2866242 C160.590301,48.2866242 163.294314,48.2140127 163.294314,48.1414013 Z M463.545151,45.8541401 C464.352843,40.9528662 466.565217,35.1802548 469.198997,31.1503185 C474.010033,23.8165605 480.436455,18.7700637 487.635452,16.6280255 C491.673913,15.4299363 498.978261,15.466242 503.227425,16.6643312 C510.777592,18.8426752 517.309365,23.9980892 520.996656,30.7146497 L522.01505,32.5299363 L526.826087,29.8433121 L531.637124,27.1566879 L530.72408,25.3050955 C526.123746,15.9019108 516.88796,9.07643312 504.491639,5.95414013 C495.571906,3.73949045 485.98495,4.71974522 478.118729,8.67707006 C471.481605,12.0171975 465.055184,17.5719745 460.700669,23.7076433 C458.347826,26.9751592 454.976589,33.8732484 453.571906,38.1210191 C452.623746,41.0980892 451.254181,47.5968153 451.5,48.0324841 C451.570234,48.177707 454.23913,48.2866242 457.399666,48.2866242 L463.123746,48.2866242 L463.545151,45.8541401 Z M656.443144,44.9828025 C659.287625,29.4076433 670.525084,17.644586 684.220736,15.9382166 C697.073579,14.3044586 708.943144,21.3477707 715.299331,34.4178344 C716.809365,37.5401274 718.77592,43.6394904 719.056856,46.2171975 L719.302676,48.2866242 L725.202341,48.2866242 C730.399666,48.2866242 731.137124,48.2140127 731.137124,47.7057325 C731.137124,46.2898089 729.62709,39.6821656 728.643813,36.777707 C723.657191,22.1828025 713.438127,11.5089172 700.058528,6.9343949 C695.704013,5.44585987 691.595318,4.93757962 685.48495,5.19171975 C681.551839,5.33694268 679.585284,5.5910828 676.881271,6.31719745 C672.807692,7.44267516 667.013378,10.2019108 663.747492,12.6343949 C658.585284,16.4464968 652.79097,23.2356688 649.911371,28.8993631 C647.312709,34.0547771 645.135452,40.9528662 644.468227,46.0356688 L644.152174,48.2866242 L650.016722,48.2866242 L655.846154,48.2866242 L656.443144,44.9828025 Z M429.832776,10.8917197 L429.832776,5.44585987 L398.227425,5.44585987 L366.622074,5.44585987 L366.622074,10.8917197 L366.622074,16.3375796 L398.227425,16.3375796 L429.832776,16.3375796 L429.832776,10.8917197 Z" id="Shape"></path>
                </g>
            </g>
            <g id="arrow-point-to-right-copy-7" transform="translate(42.000000, 1.000000)">
                <path d="M59.7323681,61.6597333 L12.190403,110.69954 C9.16615978,113.820675 7.34472936,110.736254 4.32195432,107.61512 C1.29893458,104.496761 -1.78292703,102.523505 1.24009271,99.4053988 L43.3073921,56.0126625 L1.24131621,12.6214407 C-1.78170353,9.50182025 1.29893458,7.40333385 4.32195432,4.28497551 C7.34497406,1.16535508 9.16738328,-1.79333105 12.1916265,1.32628938 L59.7335916,50.3668537 C61.2451015,51.9267902 62,53.9690953 62,56.01241 C62,58.0567345 61.2436333,60.1005541 59.7323681,61.6597333 Z" id="Path"></path>
            </g>
            <g id="arrow-point-to-right-copy-8" transform="translate(0.000000, 1.000000)">
                <path d="M59.7323681,61.6597333 L12.190403,110.69954 C9.16615978,113.820675 7.34472936,110.736254 4.32195432,107.61512 C1.29893458,104.496761 -1.78292703,102.523505 1.24009271,99.4053988 L43.3073921,56.0126625 L1.24131621,12.6214407 C-1.78170353,9.50182025 1.29893458,7.40333385 4.32195432,4.28497551 C7.34497406,1.16535508 9.16738328,-1.79333105 12.1916265,1.32628938 L59.7335916,50.3668537 C61.2451015,51.9267902 62,53.9690953 62,56.01241 C62,58.0567345 61.2436333,60.1005541 59.7323681,61.6597333 Z" id="Path"></path>
            </g>
        </g>
    </g>
</svg>