<?xml version="1.0" encoding="UTF-8"?>
<svg width="932px" height="96px" viewBox="0 0 932 96" version="1.1" xmlns="http://www.w3.org/2000/svg" xmlns:xlink="http://www.w3.org/1999/xlink">
    <title>Group</title>
    <g id="Marketing-Material" stroke="none" stroke-width="1" fill="none" fill-rule="evenodd">
        <g id="Mobile-Copy-3" transform="translate(-15.000000, -112.000000)" fill="#002540" fill-rule="nonzero">
            <g id="Group" transform="translate(15.000000, 112.030547)">
                <path d="M304.802676,39.7645262 C311.123746,38.0437905 315.934783,35.5504794 321.518395,30.985262 C329.595318,24.4534894 335.424749,14.5855965 337.742475,3.52372356 C337.953177,2.47021185 338.198997,1.24111486 338.304348,0.819710183 L338.444816,0.0120178748 L332.474916,0.0120178748 L326.505017,0.0120178748 L326.294314,0.995295467 C324.362876,9.91502791 320.605351,17.0437905 315.197324,21.9250614 C309.262542,27.3330881 303.714047,29.721048 296.304348,30.1073356 C288.016722,30.5287403 280.852843,27.8247269 274.461538,21.8197102 C270.107023,17.7461316 266.314381,11.1090078 264.488294,4.40164998 C263.996656,2.47021185 263.505017,0.679241955 263.434783,0.468539614 C263.329431,0.117369045 261.854515,0.0120178748 257.5,0.0120178748 L251.705686,0.0120178748 L251.705686,1.20599781 C251.705686,1.87322189 252.091973,3.94512824 252.583612,5.84144931 C257.183946,23.5053289 271.020067,37.0956299 287.630435,40.256165 C291.493311,40.9936232 301.326087,40.7126868 304.802676,39.7645262 Z" id="Path-Copy" transform="translate(295.075251, 20.343578) scale(-1, 1) rotate(-180.000000) translate(-295.075251, -20.343578) "></path>
                <path d="M602.419732,40.8762542 C613.481605,39.2608696 623.20903,32.9046823 628.546823,23.8093645 C629.284281,22.5451505 629.916388,21.3862876 629.916388,21.3160535 C629.916388,21.0702341 621.242475,15.451505 620.891304,15.451505 C620.750836,15.451505 620.048495,16.4347826 619.381271,17.6287625 C617.730769,20.5785953 613.130435,25.1789298 610.075251,26.9698997 C605.123746,29.8846154 599.785953,31.1137124 593.324415,30.7976589 C586.757525,30.5167224 582.122074,28.8311037 576.749164,24.7575251 C570.392977,19.9464883 566.319398,13.4498328 564.14214,4.56521739 L563.018395,-9.9475983e-14 L557.153846,-9.9475983e-14 L551.289298,-9.9475983e-14 L551.464883,1.15886288 C553.010033,10.4297659 555.117057,15.9782609 559.647157,22.6856187 C566.284281,32.5183946 577.591973,39.541806 589.250836,41.0518395 C592.938127,41.5434783 598.556856,41.4732441 602.419732,40.8762542 Z" id="Path-Copy-2" transform="translate(590.602843, 20.688740) scale(-1, 1) rotate(-180.000000) translate(-590.602843, -20.688740) "></path>
                <path d="M794.264214,39.9072876 C802.516722,38.5728394 809.750836,34.8504314 816.493311,28.42401 C823.060201,22.243408 827.660535,14.0962508 829.943144,4.7902307 C831.207358,-0.477327825 831.734114,0.0143109711 825.026756,0.0143109711 L819.267559,0.0143109711 L818.5301,3.06949492 C815.369565,15.6062842 807.152174,25.0878896 796.265886,28.7049464 C793.632107,29.5828728 792.929766,29.653107 787.767559,29.653107 C781.446488,29.688224 779.444816,29.3019364 775.125418,27.1597959 C765.608696,22.4541103 759.392977,13.9557825 756.337793,1.52434442 L755.951505,0.0143109711 L750.192308,0.0143109711 C745.381271,0.0143109711 744.397993,0.0845450849 744.397993,0.505949767 C744.397993,1.62969559 745.521739,6.26514709 746.505017,9.17986281 C751.210702,23.2969197 763.010033,34.9206655 776.5301,38.8537759 C778.250836,39.3454147 780.603679,39.8721705 781.797659,40.0477558 C785.274247,40.4691605 791.068562,40.4340434 794.264214,39.9072876 Z" id="Path-Copy-3" transform="translate(787.559788, 20.169140) scale(-1, 1) rotate(-180.000000) translate(-787.559788, -20.169140) "></path>
                <path d="M161.770903,92.578149 C167.003344,90.681828 171.11204,86.8540688 173.851171,81.3758079 C176.168896,76.7403564 176.730769,74.3875136 176.695652,69.2955403 C176.695652,65.6784835 176.555184,64.6952059 175.712375,62.272129 C173.780936,56.5831658 169.812709,51.5614266 165.493311,49.2437009 L163.456522,48.1199551 L165.282609,47.5229651 C169.391304,46.1533999 175.185619,41.2370119 177.608696,37.0580822 C180.277592,32.4226306 181.436455,25.0129317 180.312709,19.7102561 C179.610368,16.4794868 177.749164,12.5814935 175.712375,10.0179484 C172.657191,6.22530623 167.143813,2.81895172 161.595318,1.27380122 C158.891304,0.501225966 158.329431,0.501225966 133.993311,0.360757738 L109.130435,0.255406568 L109.130435,5.34737981 L109.130435,10.4744701 L131.535117,10.4744701 C146.17893,10.4744701 154.677258,10.6149383 156.046823,10.8607577 C164.650502,12.4410253 170.51505,21.7119283 168.302676,30.2804902 C167.003344,35.1968781 163.59699,39.7972126 159.944816,41.4477143 C158.153846,42.2554066 157.87291,42.2554066 145.58194,42.3607577 L133.010033,42.4661089 L133.010033,47.3473798 L133.010033,52.2286507 L143.650502,52.3340019 L154.255853,52.4393531 L156.573579,53.5630989 C159.523411,55.0028982 162.192308,57.8122628 163.59699,60.8674467 C167.354515,69.1901892 163.702341,79.5497209 156.011706,82.4293196 C154.115385,83.1316607 153.377926,83.1667778 137.575251,83.1667778 L121.070234,83.1667778 L121.070234,52.2637678 L121.070234,21.3607577 L115.100334,21.3607577 L109.130435,21.3607577 L109.130435,57.5313263 L109.130435,93.7370119 L134.168896,93.6316607 L159.172241,93.5263096 L161.770903,92.578149 Z" id="Path-Copy-4" transform="translate(144.935187, 46.996209) scale(-1, 1) rotate(-180.000000) translate(-144.935187, -46.996209) "></path>
                <polygon id="Path-Copy-5" transform="translate(216.149666, 46.996209) scale(-1, 1) rotate(-180.000000) translate(-216.149666, -46.996209) " points="222.031773 46.9962092 222.031773 0.466108909 216.167224 0.360757738 210.267559 0.290523625 210.267559 46.9962092 210.267559 93.7018949 216.167224 93.6316607 222.031773 93.5263096"></polygon>
                <path d="M379.461538,44.6835295 L391.822742,13.1484125 L388.943144,6.58152282 C387.362876,2.96446596 385.958194,0.155101415 385.817726,0.295569642 C385.677258,0.43603787 380.795987,12.270486 374.966555,26.5631282 C369.137124,40.8557703 362.254181,57.7470747 359.655518,64.0681449 C357.056856,70.3892151 354.949833,75.7270078 354.949833,75.9377101 C354.949833,76.1132954 357.443144,76.2537636 361.025084,76.2537636 L367.100334,76.2537636 L379.461538,44.6835295 Z" id="Path-Copy-6" transform="translate(373.386288, 38.272144) scale(-1, 1) rotate(-180.000000) translate(-373.386288, -38.272144) "></path>
                <path d="M440.986622,93.3443792 C440.986622,93.1687939 432.488294,72.2039109 422.058528,46.7440447 L403.165552,0.424646723 L398.073579,0.319295553 C393.122074,0.249061439 392.981605,0.249061439 392.630435,1.02163669 C392.349498,1.65374371 392.876254,3.1286601 395.545151,9.34437916 C397.301003,13.5233089 405.518395,34.2072554 413.80602,55.3126066 L428.801003,93.6604327 L434.911371,93.6604327 C438.247492,93.6604327 440.986622,93.5199644 440.986622,93.3443792 Z" id="Path-Copy-7" transform="translate(416.774802, 46.975478) scale(-1, 1) rotate(-180.000000) translate(-416.774802, -46.975478) "></path>
                <polygon id="Path-Copy-8" transform="translate(497.718227, 14.688517) scale(-1, 1) rotate(-180.000000) translate(-497.718227, -14.688517) " points="528.70903 23.7487176 528.814381 18.5513932 503.494983 18.5513932 478.210702 18.5513932 478.210702 9.42095841 478.210702 0.290523625 472.416388 0.290523625 466.622074 0.290523625 466.622074 14.6885169 466.622074 29.0865102 497.630435 29.0162761 528.603679 28.910925"></polygon>
                <polygon id="Path-Copy-9" transform="translate(688.561873, 5.733667) scale(-1, 1) rotate(-180.000000) translate(-688.561873, -5.733667) " points="726.488294 5.73366744 726.488294 0.641694193 688.561873 0.641694193 650.635452 0.641694193 650.635452 5.73366744 650.635452 10.8256407 688.561873 10.8256407 726.488294 10.8256407"></polygon>
                <path d="M908.394649,92.2269785 C913.346154,90.5413597 917.595318,87.626644 921.107023,83.5530654 C930.553512,72.5263096 931.29097,57.4610922 922.93311,45.6968781 C920.158863,41.7286507 915.347826,38.0413597 911.48495,36.9176139 C910.361204,36.5664434 909.448161,36.1450387 909.448161,36.0045704 C909.448161,35.758751 927.006689,7.77045674 931.150502,1.37915239 L931.64214,0.606577136 L925.145485,0.606577136 L918.648829,0.606577136 L906.498328,19.675139 C899.826087,30.140022 893.575251,39.9376808 892.591973,41.4477143 L890.83612,44.1517276 L896.735786,44.1517276 C902.951505,44.1517276 904.882943,44.4677811 907.692308,45.9075805 C912.046823,48.1199551 915.382943,53.036343 916.647157,59.0764768 C917.349498,62.5530654 917.314381,65.2570788 916.471572,68.5229651 C914.961538,74.5279818 911.379599,79.1634333 906.428094,81.5865102 L903.688963,82.9560755 L888.132107,83.0614266 L872.575251,83.1667778 L872.575251,63.6416942 L872.575251,44.1517276 L875.173913,44.1517276 L877.772575,44.1517276 L880.93311,39.1299885 L884.058528,34.1433664 L878.334448,34.0380153 L872.575251,33.9677811 L872.575251,17.2871791 L872.575251,0.606577136 L866.780936,0.606577136 L860.986622,0.606577136 L860.986622,46.9610922 L860.986622,93.3507243 L883.391304,93.2453731 L905.76087,93.140022 L908.394649,92.2269785 Z" id="Path-Copy-10" transform="translate(896.314381, 46.978651) scale(-1, 1) rotate(-180.000000) translate(-896.314381, -46.978651) "></path>
                <polygon id="Path-Copy-11" transform="translate(688.386288, 58.058082) scale(-1, 1) rotate(-180.000000) translate(-688.386288, -58.058082) " points="694.180602 58.0580822 694.180602 22.76544 688.386288 22.76544 682.591973 22.76544 682.591973 58.0580822 682.591973 93.3507243 688.386288 93.3507243 694.180602 93.3507243"></polygon>
                <polygon id="Path-Copy-12" transform="translate(494.364548, 56.126644) scale(-1, 1) rotate(-180.000000) translate(-494.364548, -56.126644) " points="522.107023 66.3105905 522.107023 61.3942026 500.158863 61.3942026 478.210702 61.3942026 478.210702 51.2102561 478.210702 41.0263096 472.416388 41.0263096 466.622074 41.0263096 466.622074 56.126644 466.622074 71.2269785 494.364548 71.2269785 522.107023 71.2269785"></polygon>
                <path d="M263.294314,94.1511664 C263.294314,93.0625376 264.628763,87.5491597 265.401338,85.4070192 C269.685619,73.7130393 278.780936,65.4605309 289.632107,63.3886246 C292.58194,62.8267517 298.692308,62.9321029 301.607023,63.5993269 C312.598662,66.0575209 321.553512,75.2933069 325.240803,88.0056814 C325.697324,89.6561831 326.188963,91.7280895 326.329431,92.641133 L326.575251,94.2916346 L332.650502,94.2916346 L338.690635,94.2916346 L338.234114,91.6227383 C336.443144,81.3334406 332.229097,72.8351129 325.451505,65.7414674 C314.319398,54.0826045 298.938127,49.6929724 283.662207,53.731434 C273.091973,56.5407985 263.153846,64.6177216 257.359532,75.0826045 C254.76087,79.7882901 252.267559,87.3033403 251.5301,92.641133 L251.319398,94.2916346 L257.289298,94.2916346 C260.590301,94.2916346 263.294314,94.2214005 263.294314,94.1511664 Z" id="Path-Copy-13" transform="translate(295.005017, 73.277701) scale(-1, 1) rotate(-180.000000) translate(-295.005017, -73.277701) "></path>
                <path d="M563.545151,91.9800146 C564.352843,87.2392119 566.565217,81.6555999 569.198997,77.7576066 C574.010033,70.6639611 580.436455,65.7826902 587.635452,63.7107838 C591.673913,62.5519209 598.978261,62.587038 603.227425,63.7459009 C610.777592,65.8529243 617.309365,70.8395464 620.996656,77.3362019 L622.01505,79.0920547 L626.826087,76.4933925 L631.637124,73.8947303 L630.72408,72.1037604 C626.123746,63.0084427 616.88796,56.406436 604.491639,53.3863691 C595.571906,51.2442286 585.98495,52.1923892 578.118729,56.0201484 C571.481605,59.2509176 565.055184,64.6238273 560.700669,70.5586099 C558.347826,73.719145 554.976589,80.3913858 553.571906,84.5000815 C552.623746,87.3796801 551.254181,93.6656333 551.5,94.087038 C551.570234,94.2275062 554.23913,94.3328574 557.399666,94.3328574 L563.123746,94.3328574 L563.545151,91.9800146 Z" id="Path-Copy-14" transform="translate(591.554050, 73.298313) scale(-1, 1) rotate(-180.000000) translate(-591.554050, -73.298313) "></path>
                <path d="M756.443144,90.8125747 C759.287625,75.7473573 770.525084,64.3694309 784.220736,62.7189292 C797.073579,61.1386617 808.943144,67.9513707 815.299331,80.5935112 C816.809365,83.6135781 818.77592,89.5132436 819.056856,92.0065547 L819.302676,94.0082269 L825.202341,94.0082269 C830.399666,94.0082269 831.137124,93.9379928 831.137124,93.446354 C831.137124,92.0767888 829.62709,85.6854844 828.643813,82.8761199 C823.657191,68.759063 813.438127,58.4346483 800.058528,54.0098991 C795.704013,52.5700998 791.595318,52.078461 785.48495,52.3242804 C781.551839,52.4647486 779.585284,52.710568 776.881271,53.4129092 C772.807692,54.5015379 767.013378,57.1704343 763.747492,59.5232771 C758.585284,63.210568 752.79097,69.7774577 749.911371,75.2557185 C747.312709,80.2423406 745.135452,86.9145814 744.468227,91.8309694 L744.152174,94.0082269 L750.016722,94.0082269 L755.846154,94.0082269 L756.443144,90.8125747 Z" id="Path-Copy-15" transform="translate(787.644649, 73.135997) scale(-1, 1) rotate(-180.000000) translate(-787.644649, -73.135997) "></path>
                <polygon id="Path-Copy-16" transform="translate(498.227425, 88.434336) scale(-1, 1) rotate(-180.000000) translate(-498.227425, -88.434336) " points="529.832776 88.4343363 529.832776 83.1667778 498.227425 83.1667778 466.622074 83.1667778 466.622074 88.4343363 466.622074 93.7018949 498.227425 93.7018949 529.832776 93.7018949"></polygon>
                <g id="arrow-point-to-right-copy-9" transform="translate(36.000000, 1.969453)">
                    <path d="M50.0981152,50.6490666 L10.224209,90.9317653 C7.68774691,93.4955547 6.1600956,90.9619233 3.62486491,88.3981339 C1.089429,85.8366253 -1.49535816,84.215736 1.04007776,81.6544347 L36.3223288,46.0104013 L1.04110392,10.367612 C-1.494332,7.80506663 1.089429,6.08130995 3.62486491,3.51980131 C6.16030083,0.957255958 7.68877307,-1.47309336 10.2252351,1.08945199 L50.0991414,41.3727727 C51.3668593,42.6541491 52,44.3317568 52,46.010194 C52,47.6894605 51.3656279,49.3683123 50.0981152,50.6490666 Z" id="Path"></path>
                </g>
                <g id="arrow-point-to-right-copy-10" transform="translate(0.000000, 1.969453)">
                    <path d="M50.0981152,50.6490666 L10.224209,90.9317653 C7.68774691,93.4955547 6.1600956,90.9619233 3.62486491,88.3981339 C1.089429,85.8366253 -1.49535816,84.215736 1.04007776,81.6544347 L36.3223288,46.0104013 L1.04110392,10.367612 C-1.494332,7.80506663 1.089429,6.08130995 3.62486491,3.51980131 C6.16030083,0.957255958 7.68877307,-1.47309336 10.2252351,1.08945199 L50.0991414,41.3727727 C51.3668593,42.6541491 52,44.3317568 52,46.010194 C52,47.6894605 51.3656279,49.3683123 50.0981152,50.6490666 Z" id="Path"></path>
                </g>
            </g>
        </g>
    </g>
</svg>