<?xml version="1.0" encoding="UTF-8"?>
<svg width="957px" height="113px" viewBox="0 0 957 113" version="1.1" xmlns="http://www.w3.org/2000/svg" xmlns:xlink="http://www.w3.org/1999/xlink">
    <title>Group 2</title>
    <g id="Marketing-Material" stroke="none" stroke-width="1" fill="none" fill-rule="evenodd">
        <g id="Artboard" transform="translate(-138.000000, -103.000000)" fill="#000000" fill-rule="nonzero">
            <g id="Group-2" transform="translate(138.000000, 104.732441)">
                <g id="Bildschirmfoto-2021-01-15-um-18.54.57" transform="translate(117.000000, -0.000000)">
                    <g id="Group" transform="translate(420.000000, 55.133779) scale(-1, 1) rotate(-180.000000) translate(-420.000000, -55.133779) ">
                        <path d="M0,55.1337793 L0,0 L420,0 L840,0 L840,55.1337793 L840,110.267559 L420,110.267559 L0,110.267559 L0,55.1337793 Z M204.802676,98.0468227 C211.123746,96.326087 215.934783,93.8327759 221.518395,89.2675585 C229.595318,82.735786 235.424749,72.867893 237.742475,61.8060201 C237.953177,60.7525084 238.198997,59.5234114 238.304348,59.1020067 L238.444816,58.2943144 L232.474916,58.2943144 L226.505017,58.2943144 L226.294314,59.277592 C224.362876,68.1973244 220.605351,75.326087 215.197324,80.2073579 C209.262542,85.6153846 203.714047,88.0033445 196.304348,88.3896321 C188.016722,88.8110368 180.852843,86.1070234 174.461538,80.1020067 C170.107023,76.0284281 166.314381,69.3913043 164.488294,62.6839465 C163.996656,60.7525084 163.505017,58.9615385 163.434783,58.7508361 C163.329431,58.3996656 161.854515,58.2943144 157.5,58.2943144 L151.705686,58.2943144 L151.705686,59.4882943 C151.705686,60.1555184 152.091973,62.2274247 152.583612,64.1237458 C157.183946,81.7876254 171.020067,95.3779264 187.630435,98.5384615 C191.493311,99.2759197 201.326087,98.9949833 204.802676,98.0468227 Z M502.419732,98.4682274 C513.481605,96.8528428 523.20903,90.4966555 528.546823,81.4013378 C529.284281,80.1371237 529.916388,78.9782609 529.916388,78.9080268 C529.916388,78.6622074 521.242475,73.0434783 520.891304,73.0434783 C520.750836,73.0434783 520.048495,74.0267559 519.381271,75.2207358 C517.730769,78.1705686 513.130435,82.770903 510.075251,84.5618729 C505.123746,87.4765886 499.785953,88.7056856 493.324415,88.3896321 C486.757525,88.1086957 482.122074,86.4230769 476.749164,82.3494983 C470.392977,77.5384615 466.319398,71.041806 464.14214,62.1571906 L463.018395,57.5919732 L457.153846,57.5919732 L451.289298,57.5919732 L451.464883,58.7508361 C453.010033,68.0217391 455.117057,73.5702341 459.647157,80.277592 C466.284281,90.1103679 477.591973,97.1337793 489.250836,98.6438127 C492.938127,99.1354515 498.556856,99.0652174 502.419732,98.4682274 Z M694.264214,98.5384615 C702.516722,97.2040134 709.750836,93.4816054 716.493311,87.0551839 C723.060201,80.8745819 727.660535,72.7274247 729.943144,63.4214047 C731.207358,58.1538462 731.734114,58.6454849 725.026756,58.6454849 L719.267559,58.6454849 L718.5301,61.7006689 C715.369565,74.2374582 707.152174,83.7190635 696.265886,87.3361204 C693.632107,88.2140468 692.929766,88.2842809 687.767559,88.2842809 C681.446488,88.319398 679.444816,87.9331104 675.125418,85.7909699 C665.608696,81.0852843 659.392977,72.5869565 656.337793,60.1555184 L655.951505,58.6454849 L650.192308,58.6454849 C645.381271,58.6454849 644.397993,58.7157191 644.397993,59.1371237 C644.397993,60.2608696 645.521739,64.8963211 646.505017,67.8110368 C651.210702,81.9280936 663.010033,93.5518395 676.5301,97.4849498 C678.250836,97.9765886 680.603679,98.5033445 681.797659,98.6789298 C685.274247,99.1003344 691.068562,99.0652174 694.264214,98.5384615 Z M61.770903,97.5551839 C67.0033445,95.6588629 71.1120401,91.8311037 73.8511706,86.3528428 C76.1688963,81.7173913 76.7307692,79.3645485 76.6956522,74.2725753 C76.6956522,70.6555184 76.5551839,69.6722408 75.7123746,67.2491639 C73.7809365,61.5602007 69.812709,56.5384615 65.493311,54.2207358 L63.4565217,53.09699 L65.2826087,52.5 C69.3913043,51.1304348 75.1856187,46.2140468 77.6086957,42.0351171 C80.277592,37.3996656 81.4364548,29.9899666 80.312709,24.687291 C79.6103679,21.4565217 77.7491639,17.5585284 75.7123746,14.9949833 C72.6571906,11.2023411 67.1438127,7.79598662 61.5953177,6.25083612 C58.8913043,5.47826087 58.3294314,5.47826087 33.993311,5.33779264 L9.13043478,5.23244147 L9.13043478,10.3244147 L9.13043478,15.451505 L31.5351171,15.451505 C46.1789298,15.451505 54.6772575,15.5919732 56.0468227,15.8377926 C64.6505017,17.4180602 70.5150502,26.6889632 68.3026756,35.2575251 C67.0033445,40.173913 63.59699,44.7742475 59.9448161,46.4247492 C58.1538462,47.2324415 57.8729097,47.2324415 45.5819398,47.3377926 L33.0100334,47.4431438 L33.0100334,52.3244147 L33.0100334,57.2056856 L43.6505017,57.3110368 L54.2558528,57.416388 L56.5735786,58.5401338 C59.5234114,59.9799331 62.1923077,62.7892977 63.59699,65.8444816 C67.3545151,74.1672241 63.7023411,84.5267559 56.0117057,87.4063545 C54.1153846,88.1086957 53.3779264,88.1438127 37.5752508,88.1438127 L21.0702341,88.1438127 L21.0702341,57.2408027 L21.0702341,26.3377926 L15.1003344,26.3377926 L9.13043478,26.3377926 L9.13043478,62.5083612 L9.13043478,98.7140468 L34.1688963,98.6086957 L59.1722408,98.5033445 L61.770903,97.5551839 Z M122.031773,51.9732441 L122.031773,5.44314381 L116.167224,5.33779264 L110.267559,5.26755853 L110.267559,51.9732441 L110.267559,98.6789298 L116.167224,98.6086957 L122.031773,98.5033445 L122.031773,51.9732441 Z M279.461538,67.1086957 L291.822742,35.5735786 L288.943144,29.006689 C287.362876,25.3896321 285.958194,22.5802676 285.817726,22.7207358 C285.677258,22.861204 280.795987,34.6956522 274.966555,48.9882943 C269.137124,63.2809365 262.254181,80.1722408 259.655518,86.493311 C257.056856,92.8143813 254.949833,98.1521739 254.949833,98.3628763 C254.949833,98.5384615 257.443144,98.6789298 261.025084,98.6789298 L267.100334,98.6789298 L279.461538,67.1086957 Z M340.986622,98.3628763 C340.986622,98.187291 332.488294,77.222408 322.058528,51.7625418 L303.165552,5.44314381 L298.073579,5.33779264 C293.122074,5.26755853 292.981605,5.26755853 292.630435,6.04013378 C292.349498,6.6722408 292.876254,8.14715719 295.545151,14.3628763 C297.301003,18.541806 305.518395,39.2257525 313.80602,60.3311037 L328.801003,98.6789298 L334.911371,98.6789298 C338.247492,98.6789298 340.986622,98.5384615 340.986622,98.3628763 Z M428.70903,93.3411371 L428.814381,88.1438127 L403.494983,88.1438127 L378.210702,88.1438127 L378.210702,79.0133779 L378.210702,69.8829431 L372.416388,69.8829431 L366.622074,69.8829431 L366.622074,84.2809365 L366.622074,98.6789298 L397.630435,98.6086957 L428.603679,98.5033445 L428.70903,93.3411371 Z M626.488294,93.235786 L626.488294,88.1438127 L588.561873,88.1438127 L550.635452,88.1438127 L550.635452,93.235786 L550.635452,98.3277592 L588.561873,98.3277592 L626.488294,98.3277592 L626.488294,93.235786 Z M808.394649,97.2391304 C813.346154,95.5535117 817.595318,92.638796 821.107023,88.5652174 C830.553512,77.5384615 831.29097,62.4732441 822.93311,50.7090301 C820.158863,46.7408027 815.347826,43.0535117 811.48495,41.9297659 C810.361204,41.5785953 809.448161,41.1571906 809.448161,41.0167224 C809.448161,40.770903 827.006689,12.7826087 831.150502,6.39130435 L831.64214,5.6187291 L825.145485,5.6187291 L818.648829,5.6187291 L806.498328,24.687291 C799.826087,35.1521739 793.575251,44.9498328 792.591973,46.4598662 L790.83612,49.1638796 L796.735786,49.1638796 C802.951505,49.1638796 804.882943,49.4799331 807.692308,50.9197324 C812.046823,53.132107 815.382943,58.048495 816.647157,64.0886288 C817.349498,67.5652174 817.314381,70.2692308 816.471572,73.5351171 C814.961538,79.5401338 811.379599,84.1755853 806.428094,86.5986622 L803.688963,87.9682274 L788.132107,88.0735786 L772.575251,88.1789298 L772.575251,68.6538462 L772.575251,49.1638796 L775.173913,49.1638796 L777.772575,49.1638796 L780.93311,44.1421405 L784.058528,39.1555184 L778.334448,39.0501672 L772.575251,38.9799331 L772.575251,22.2993311 L772.575251,5.6187291 L766.780936,5.6187291 L760.986622,5.6187291 L760.986622,51.9732441 L760.986622,98.3628763 L783.391304,98.2575251 L805.76087,98.1521739 L808.394649,97.2391304 Z M594.180602,40.9113712 L594.180602,5.6187291 L588.386288,5.6187291 L582.591973,5.6187291 L582.591973,40.9113712 L582.591973,76.2040134 L588.386288,76.2040134 L594.180602,76.2040134 L594.180602,40.9113712 Z M422.107023,53.0267559 L422.107023,48.1103679 L400.158863,48.1103679 L378.210702,48.1103679 L378.210702,37.9264214 L378.210702,27.7424749 L372.416388,27.7424749 L366.622074,27.7424749 L366.622074,42.8428094 L366.622074,57.9431438 L394.364548,57.9431438 L422.107023,57.9431438 L422.107023,53.0267559 Z M163.294314,46.5652174 C163.294314,45.4765886 164.628763,39.9632107 165.401338,37.8210702 C169.685619,26.1270903 178.780936,17.8745819 189.632107,15.8026756 C192.58194,15.2408027 198.692308,15.3461538 201.607023,16.0133779 C212.598662,18.4715719 221.553512,27.7073579 225.240803,40.4197324 C225.697324,42.0702341 226.188963,44.1421405 226.329431,45.0551839 L226.575251,46.7056856 L232.650502,46.7056856 L238.690635,46.7056856 L238.234114,44.0367893 C236.443144,33.7474916 232.229097,25.2491639 225.451505,18.1555184 C214.319398,6.49665552 198.938127,2.10702341 183.662207,6.14548495 C173.091973,8.9548495 163.153846,17.0317726 157.359532,27.4966555 C154.76087,32.2023411 152.267559,39.7173913 151.5301,45.0551839 L151.319398,46.7056856 L157.289298,46.7056856 C160.590301,46.7056856 163.294314,46.6354515 163.294314,46.5652174 Z M463.545151,44.3528428 C464.352843,39.6120401 466.565217,34.0284281 469.198997,30.1304348 C474.010033,23.0367893 480.436455,18.1555184 487.635452,16.083612 C491.673913,14.9247492 498.978261,14.9598662 503.227425,16.1187291 C510.777592,18.2257525 517.309365,23.2123746 520.996656,29.7090301 L522.01505,31.4648829 L526.826087,28.8662207 L531.637124,26.2675585 L530.72408,24.4765886 C526.123746,15.3812709 516.88796,8.77926421 504.491639,5.75919732 C495.571906,3.61705686 485.98495,4.56521739 478.118729,8.39297659 C471.481605,11.6237458 465.055184,16.9966555 460.700669,22.9314381 C458.347826,26.0919732 454.976589,32.764214 453.571906,36.8729097 C452.623746,39.7525084 451.254181,46.0384615 451.5,46.4598662 C451.570234,46.6003344 454.23913,46.7056856 457.399666,46.7056856 L463.123746,46.7056856 L463.545151,44.3528428 Z M656.443144,43.5100334 C659.287625,28.4448161 670.525084,17.0668896 684.220736,15.416388 C697.073579,13.8361204 708.943144,20.6488294 715.299331,33.2909699 C716.809365,36.3110368 718.77592,42.2107023 719.056856,44.7040134 L719.302676,46.7056856 L725.202341,46.7056856 C730.399666,46.7056856 731.137124,46.6354515 731.137124,46.1438127 C731.137124,44.7742475 729.62709,38.3829431 728.643813,35.5735786 C723.657191,21.4565217 713.438127,11.132107 700.058528,6.70735786 C695.704013,5.26755853 691.595318,4.77591973 685.48495,5.02173913 C681.551839,5.16220736 679.585284,5.40802676 676.881271,6.11036789 C672.807692,7.19899666 667.013378,9.86789298 663.747492,12.2207358 C658.585284,15.9080268 652.79097,22.4749164 649.911371,27.9531773 C647.312709,32.9397993 645.135452,39.6120401 644.468227,44.5284281 L644.152174,46.7056856 L650.016722,46.7056856 L655.846154,46.7056856 L656.443144,43.5100334 Z M429.832776,10.5351171 L429.832776,5.26755853 L398.227425,5.26755853 L366.622074,5.26755853 L366.622074,10.5351171 L366.622074,15.8026756 L398.227425,15.8026756 L429.832776,15.8026756 L429.832776,10.5351171 Z" id="Shape"></path>
                    </g>
                </g>
                <g id="arrow-point-to-right-copy-4" transform="translate(0.000000, 0.267559)">
                    <path d="M59.7693244,60.4455656 L13.0021645,107.74235 C10.0272082,110.75255 5.20382654,110.75255 2.23031454,107.74235 C-0.743438179,104.734827 -0.743438179,99.8569151 2.23031454,96.849636 L43.6120309,54.9992088 L2.2315181,13.1502422 C-0.74223462,10.1415025 -0.74223462,5.26407722 2.2315181,2.25655476 C5.20527081,-0.752184921 10.0284117,-0.752184921 13.003368,2.25655476 L59.770528,49.5540692 C61.2574043,51.0585608 62,53.0282762 62,54.9989654 C62,56.9706283 61.25596,58.9418044 59.7693244,60.4455656 Z" id="Path"></path>
                </g>
                <g id="arrow-point-to-right-copy-5" transform="translate(44.000000, 0.267559)">
                    <path d="M60.7333458,60.4455656 L13.2118768,107.74235 C10.1889374,110.75255 5.28775923,110.75255 2.26628735,107.74235 C-0.755429117,104.734827 -0.755429117,99.8569151 2.26628735,96.849636 L44.3154508,54.9992088 L2.26751032,13.1502422 C-0.754206146,10.1415025 -0.754206146,5.26407722 2.26751032,2.25655476 C5.28922679,-0.752184921 10.1901603,-0.752184921 13.2130998,2.25655476 L60.7345687,49.5540692 C62.245427,51.0585608 63,53.0282762 63,54.9989654 C63,56.9706283 62.2439594,58.9418044 60.7333458,60.4455656 Z" id="Path"></path>
                </g>
            </g>
        </g>
    </g>
</svg>