<?xml version="1.0" encoding="UTF-8"?>
<svg width="470px" height="512px" viewBox="0 0 470 512" version="1.1" xmlns="http://www.w3.org/2000/svg" xmlns:xlink="http://www.w3.org/1999/xlink">
    <title>bell</title>
    <g id="lab" stroke="none" stroke-width="1" fill="none" fill-rule="evenodd">
        <g id="bell" fill="#FFFFFF" fill-rule="nonzero">
            <path d="M453.332031,229.332031 C444.5,229.332031 437.332031,222.164062 437.332031,213.332031 C437.332031,152.0625 413.484375,94.484375 370.175781,51.15625 C363.925781,44.90625 363.925781,34.773438 370.175781,28.523438 C376.425781,22.273438 386.558594,22.273438 392.8125,28.523438 C442.15625,77.886719 469.332031,143.53125 469.332031,213.332031 C469.332031,222.164062 462.164062,229.332031 453.332031,229.332031 L453.332031,229.332031 Z" id="Path"></path>
            <path d="M16,229.332031 C7.167969,229.332031 0,222.164062 0,213.332031 C0,143.53125 27.179688,77.886719 76.542969,28.542969 C82.792969,22.292969 92.929688,22.292969 99.179688,28.542969 C105.429688,34.792969 105.429688,44.929688 99.179688,51.179688 C55.851562,94.484375 32,152.0625 32,213.332031 C32,222.164062 24.832031,229.332031 16,229.332031 Z" id="Path"></path>
            <path d="M234.667969,512 C190.550781,512 154.667969,476.117188 154.667969,432 C154.667969,423.167969 161.835938,416 170.667969,416 C179.5,416 186.667969,423.167969 186.667969,432 C186.667969,458.476562 208.191406,480 234.667969,480 C261.140625,480 282.667969,458.476562 282.667969,432 C282.667969,423.167969 289.835938,416 298.667969,416 C307.5,416 314.667969,423.167969 314.667969,432 C314.667969,476.117188 278.785156,512 234.667969,512 L234.667969,512 Z" id="Path"></path>
            <path d="M410.667969,448 L58.667969,448 C38.078125,448 21.332031,431.253906 21.332031,410.667969 C21.332031,399.742188 26.089844,389.398438 34.390625,382.292969 C66.835938,354.878906 85.332031,315.03125 85.332031,272.8125 L85.332031,213.332031 C85.332031,130.988281 152.320312,64 234.667969,64 C317.011719,64 384,130.988281 384,213.332031 L384,272.8125 C384,315.03125 402.496094,354.878906 434.730469,382.144531 C443.242188,389.398438 448,399.742188 448,410.667969 C448,431.253906 431.253906,448 410.667969,448 Z M234.667969,96 C169.960938,96 117.332031,148.628906 117.332031,213.332031 L117.332031,272.8125 C117.332031,324.457031 94.699219,373.226562 55.253906,406.570312 C54.507812,407.210938 53.332031,408.535156 53.332031,410.667969 C53.332031,413.566406 55.765625,416 58.667969,416 L410.667969,416 C413.566406,416 416,413.566406 416,410.667969 C416,408.535156 414.828125,407.210938 414.121094,406.613281 C374.632812,373.226562 352,324.457031 352,272.8125 L352,213.332031 C352,148.628906 299.371094,96 234.667969,96 Z" id="Shape"></path>
            <path d="M234.667969,96 C225.835938,96 218.667969,88.832031 218.667969,80 L218.667969,16 C218.667969,7.167969 225.835938,0 234.667969,0 C243.5,0 250.667969,7.167969 250.667969,16 L250.667969,80 C250.667969,88.832031 243.5,96 234.667969,96 Z" id="Path"></path>
        </g>
    </g>
</svg>